<svg width="2172" height="724" viewBox="0 0 2172 724" fill="none" xmlns="http://www.w3.org/2000/svg">
<g clip-path="url(#clip0_79_144)">
<path d="M2110.5 1.5L2130.36 713.861C2130.44 716.676 2128.17 719 2125.36 719H1793.37C1793.12 719 1792.88 718.982 1792.63 718.945L1458.28 669.138C1455.82 668.772 1454.01 666.657 1454.02 664.173L1456.5 1.5" stroke="#FF00E6" stroke-width="5"/>
<path d="M740.37 254.979L735.103 536.98C735.048 539.936 732.453 542.199 729.517 541.852L591.413 525.522C588.896 525.224 587 523.091 587 520.556V300.652C587 298.477 588.407 296.551 590.479 295.889L733.85 250.123C737.113 249.081 740.434 251.555 740.37 254.979Z" stroke="#FF00E6" stroke-width="5"/>
<path d="M924.5 579L1430.65 660.063C1433.71 660.553 1436.47 658.171 1436.44 655.073L1429.57 3.89562C1429.54 0.494891 1426.19 -1.87854 1422.97 -0.787285L882.478 182.322C880.408 183.023 879.034 184.987 879.083 187.171L883.5 381.5" stroke="#FF00E6" stroke-width="5"/>
<path d="M833.5 659L826.019 500.907C826.006 500.636 825.972 500.367 825.915 500.102L814.904 448.396C814.644 447.176 814.849 445.904 815.479 444.828L846.536 391.792C846.843 391.268 847.242 390.805 847.714 390.424L879.762 364.608C881.639 363.097 884.327 363.139 886.155 364.708L944.935 415.157C945.938 416.017 946.559 417.239 946.663 418.555L970.559 719.448C970.795 722.413 968.406 724.926 965.433 724.842L835.14 721.146C832.325 721.066 830.131 718.678 830.29 715.866L833.5 659Z" stroke="#FF00E6" stroke-width="5"/>
<path d="M1539 132.5V66.5L1744.5 1.5H1908.5V51L1539 132.5Z" stroke="black"/>
</g>
<defs>
<clipPath id="clip0_79_144">
<rect width="2172" height="724" fill="white"/>
</clipPath>
</defs>
</svg>
